{"title":"Home Free S01E08 Grand Finale Webrip x264 Anonymous","uid":12402012,"size":267743171,"categoryP":"video","categoryS":"tv_shows","magnet":"?xt=urn:btih:06327e2abac0dd98f7e89ca7a79c3088d05a9280&amp;dn=Home+Free+S01E08+Grand+Finale+Webrip+x264+Anonymous&amp;tr=udp%3A%2F%2Ftracker.openbittorrent.com%3A80&amp;tr=udp%3A%2F%2Fopen.demonii.com%3A1337&amp;tr=udp%3A%2F%2Ftracker.coppersurfer.tk%3A6969&amp;tr=udp%3A%2F%2Fexodus.desync.com%3A6969","seeders":1,"leechers":0,"uploader":"toots2boots","files":1,"time":1442041430,"description":"Home Free is an American television reality competition series that premiered on the Fox network on July 22, 2015. It will feature couples competing to win their dream home. The series is hosted by Mike Holmes, and the first season will have 8 episodes.\n\nGeneral\nComplete name                            : M:PostsHome Free S01E08 Grand Finale Webrip x264 AnonymousHome Free S01E08 Grand Finale Webrip x264 Anonymous.mp4\nFormat                                   : MPEG-4\nFormat profile                           : Base Media\nCodec ID                                 : isom\nFile size                                : 255 MiB\nDuration                                 : 43mn 15s\nOverall bit rate mode                    : Variable\nOverall bit rate                         : 825 Kbps\nWriting application                      : Lavf56.36.100\n\nVideo\nID                                       : 1\nFormat                                   : AVC\nFormat/Info                              : Advanced Video Codec\nFormat profile                           : &lt;a class=&quot;__cf_email__&quot; href=&quot;/cdn-cgi/l/email-protection&quot; data-cfemail=&quot;d09db1b9be909ce3fee1&quot;&gt;[email&amp;#160;protected]&lt;/a&gt;&lt;script data-cfhash='f9e31' type=&quot;text/javascript&quot;&gt;\n/* &lt;![CDATA[ */!function(){try{var t=&quot;currentScript&quot;in document?document.currentScript:function(){for(var t=document.getElementsByTagName(&quot;script&quot;),e=t.length;e--;)if(t[e].getAttribute(&quot;data-cfhash&quot;))return t[e]}();if(t&amp;&amp;t.previousSibling){var e,r,n,i,c=t.previousSibling,a=c.getAttribute(&quot;data-cfemail&quot;);if(a){for(e=&quot;&quot;,r=parseInt(a.substr(0,2),16),n=2;a.length-n;n+=2)i=parseInt(a.substr(n,2),16)^r,e+=String.fromCharCode(i);e=document.createTextNode(e),c.parentNode.replaceChild(e,c)}t.parentNode.removeChild(t);}}catch(u){}}()/* ]]&gt; */&lt;/script&gt;\nFormat settings, CABAC                   : Yes\nFormat settings, ReFrames                : 4 frames\nCodec ID                                 : avc1\nCodec ID/Info                            : Advanced Video Coding\nDuration                                 : 43mn 15s\nBit rate mode                            : Variable\nBit rate                                 : 770 Kbps\nMaximum bit rate                         : 840 Kbps\nWidth                                    : 960 pixels\nHeight                                   : 544 pixels\nDisplay aspect ratio                     : 16:9\nFrame rate mode                          : Variable\nFrame rate                               : 29.970 fps\nMinimum frame rate                       : 29.412 fps\nMaximum frame rate                       : 30.303 fps\nColor space                              : YUV\nChroma subsampling                       : 4:2:0\nBit depth                                : 8 bits\nScan type                                : Progressive\nBits/(Pixel*Frame)                       : 0.049\nStream size                              : 238 MiB (93%)\n\nAudio\nID                                       : 2\nFormat                                   : AAC\nFormat/Info                              : Advanced Audio Codec\nFormat profile                           : LC\nCodec ID                                 : 40\nDuration                                 : 43mn 15s\nBit rate mode                            : Constant\nBit rate                                 : 45.6 Kbps\nChannel(s)                               : 2 channels\nChannel positions                        : Front: L R\nSampling rate                            : 44.1 KHz\nCompression mode                         : Lossy\nStream size                              : 14.1 MiB (6%)","torrent":{"xt":"urn:btih:06327e2abac0dd98f7e89ca7a79c3088d05a9280","amp;dn":"Home+Free+S01E08+Grand+Finale+Webrip+x264+Anonymous","amp;tr":["udp%3A%2F%2Ftracker.openbittorrent.com%3A80","udp%3A%2F%2Fopen.demonii.com%3A1337","udp%3A%2F%2Ftracker.coppersurfer.tk%3A6969","udp%3A%2F%2Fexodus.desync.com%3A6969"],"infoHash":"06327e2abac0dd98f7e89ca7a79c3088d05a9280","infoHashBuffer":{"type":"Buffer","data":[6,50,126,42,186,192,221,152,247,232,156,167,167,156,48,136,208,90,146,128]},"announce":[],"urlList":[]}}